<svg xmlns="http://www.w3.org/2000/svg" width="382.073" height="302" viewBox="0 0 382.073 302">
  <g id="Group_6" data-name="Group 6" transform="translate(-442 -203)">
    <g id="Group_5" data-name="Group 5">
      <circle id="Ellipse_7" data-name="Ellipse 7" cx="151" cy="151" r="151" transform="translate(442 203)" fill="#ffffff"/>
      <path id="Path_2" data-name="Path 2" d="M73.754-78.18H56.3V-54.9H54.059V-78.18H8.74v-1.678l44.088-53.376h2.686L11.761-80.306h42.3v-20.478H56.3v20.478H73.754Zm38.382,23.611a26.051,26.051,0,0,1-15.61-4.868,31.478,31.478,0,0,1-10.519-13.82,53.565,53.565,0,0,1-3.749-20.813,53.565,53.565,0,0,1,3.749-20.813A31.478,31.478,0,0,1,96.525-128.7a26.051,26.051,0,0,1,15.61-4.868,26.051,26.051,0,0,1,15.61,4.868,31.478,31.478,0,0,1,10.519,13.82,53.565,53.565,0,0,1,3.749,20.813,53.565,53.565,0,0,1-3.749,20.813,31.478,31.478,0,0,1-10.519,13.82A26.051,26.051,0,0,1,112.135-54.569Zm0-2.126a23.8,23.8,0,0,0,14.435-4.588,29.6,29.6,0,0,0,9.735-13.036,51.754,51.754,0,0,0,3.469-19.75,51.753,51.753,0,0,0-3.469-19.75,29.6,29.6,0,0,0-9.735-13.036,23.8,23.8,0,0,0-14.435-4.588A23.8,23.8,0,0,0,97.7-126.856a29.6,29.6,0,0,0-9.735,13.036A51.753,51.753,0,0,0,84.5-94.069a51.753,51.753,0,0,0,3.469,19.75A29.6,29.6,0,0,0,97.7-61.283,23.8,23.8,0,0,0,112.135-56.695ZM218.776-78.18H201.319V-54.9h-2.238V-78.18H153.762v-1.678l44.088-53.376h2.686L156.783-80.306h42.3v-20.478h2.238v20.478h17.456Z" transform="translate(604.297 487.569)" fill="#242424" stroke="#242424" stroke-width="2"/>
      <g id="Group_4" data-name="Group 4" transform="translate(138 -20)">
        <g id="Group_3" data-name="Group 3" transform="translate(347 285)">
          <g id="Ellipse_2" data-name="Ellipse 2" fill="none" stroke="#171717" stroke-width="3">
            <circle cx="64" cy="64" r="64" stroke="none"/>
            <circle cx="64" cy="64" r="62.5" fill="none"/>
          </g>
          <g id="Ellipse_3" data-name="Ellipse 3" transform="translate(31 33)" fill="#171717" stroke="#171717" stroke-width="3">
            <ellipse cx="9.5" cy="13" rx="9.5" ry="13" stroke="none"/>
            <ellipse cx="9.5" cy="13" rx="8" ry="11.5" fill="none"/>
          </g>
          <g id="Ellipse_4" data-name="Ellipse 4" transform="translate(79 33)" fill="#171717" stroke="#171717" stroke-width="3">
            <ellipse cx="9.5" cy="13" rx="9.5" ry="13" stroke="none"/>
            <ellipse cx="9.5" cy="13" rx="8" ry="11.5" fill="none"/>
          </g>
          <path id="Subtraction_1" data-name="Subtraction 1" d="M0,15.639H0A13.709,13.709,0,0,1,1.435,9.55a15.7,15.7,0,0,1,3.9-4.971,18.545,18.545,0,0,1,5.782-3.351,21.011,21.011,0,0,1,14.159,0A18.545,18.545,0,0,1,31.06,4.58a15.7,15.7,0,0,1,3.9,4.971,13.7,13.7,0,0,1,1.435,6.086C32.356,8.382,25.554,4.051,18.2,4.051S4.038,8.383,0,15.638Z" transform="translate(46.429 85.333)" fill="#171717"/>
        </g>
      </g>
    </g>
  </g>
</svg>
